{"title":"Sun cheung sau (The Sniper) 2009 DVDRip [H.264 - MP4 - AAC] ~ Mi","uid":5175241,"size":1276046760,"categoryP":"video","categoryS":"movies","magnet":"?xt=urn:btih:8f7058aaa24be204e4b0f66cef1f40a4a8836c35&amp;dn=Sun+cheung+sau+%28The+Sniper%29+2009+DVDRip+%5BH.264+-+MP4+-+AAC%5D+%7E+Mi&amp;tr=udp%3A%2F%2Ftracker.openbittorrent.com%3A80&amp;tr=udp%3A%2F%2Fopen.demonii.com%3A1337&amp;tr=udp%3A%2F%2Ftracker.coppersurfer.tk%3A6969&amp;tr=udp%3A%2F%2Fexodus.desync.com%3A6969","seeders":1,"leechers":1,"uploader":"mind3103","files":-1,"time":1258931023,"description":"imdb : http://www.imdb.com/title/tt1194624/\nTagline: They are the crÃƒÂ¨me de la crÃƒÂ¨me. They can lock a target from 500m away.\nPlot: A police sniper teams up with a hot-headed rookie to take down his former friend and teammate, who is exacting revenge on the police force.\nTotal Size : 1.19 GB\n\nGeneral\nComplete name : Sun cheung sau 2009 DVDRip [H.264 - MP4 - AAC] ~ Mindbreaker.mp4\nFormat : H.264/AAC/MP4 - Anamophic\nSource : DVD (sailo1)\nFile size : 1.19 GiB\nDuration : 1h 26mn\nOverall bit rate : 1 966 Kbps\n\n\nVideo\nID : 1\nFormat : AVC\nFormat/Info : Advanced Video Codec\nFormat profile : &lt;a class=&quot;__cf_email__&quot; href=&quot;/cdn-cgi/l/email-protection&quot; data-cfemail=&quot;5810313f3018146b7668&quot;&gt;[email&amp;#160;protected]&lt;/a&gt;&lt;script cf-hash='f9e31' type=&quot;text/javascript&quot;&gt;\n/* &lt;![CDATA[ */!function(){try{var t=&quot;currentScript&quot;in document?document.currentScript:function(){for(var t=document.getElementsByTagName(&quot;script&quot;),e=t.length;e--;)if(t[e].getAttribute(&quot;cf-hash&quot;))return t[e]}();if(t&amp;&amp;t.previousSibling){var e,r,n,i,c=t.previousSibling,a=c.getAttribute(&quot;data-cfemail&quot;);if(a){for(e=&quot;&quot;,r=parseInt(a.substr(0,2),16),n=2;a.length-n;n+=2)i=parseInt(a.substr(n,2),16)^r,e+=String.fromCharCode(i);e=document.createTextNode(e),c.parentNode.replaceChild(e,c)}}}catch(u){}}();/* ]]&gt; */&lt;/script&gt;\nDuration : 1h 26mn\nBit rate : 1800 Kbps\nWidth : 720 pixels\nHeight : 364 pixels\nDisplay aspect ratio : 2.35:1\nFrame rate : 25.000 fps\nBits/(Pixel*Frame) : 0.286\nStream size : 1.09 GiB (92%)\nWriting library : x264 core 65\n\nAudio\nID : 2\nFormat : AAC\nFormat/Info : Advanced Audio Codec\nFormat profile : LC\nDuration : 1h 26mn\nBit rate : 160 Kbps\nChannel(s) : 2 channels\nSampling rate : 48.0 KHz\nStream size : 99 MiB (8%)\nLanguage : Chinese\n\nSubtitle\nFormat : SubRip\nLanguage : Dutch &amp; English\nSource : ondertitels.com &amp; Subscene.org\n &lt;a href=&quot;\nhttp://genesis.1337x.org:1337/announce&quot; rel=&quot;nofollow&quot; target=&quot;_NEW&quot;&gt;\nhttp://genesis.1337x.org:1337/announce&lt;/a&gt; &lt;a href=&quot;\nhttp://tracker.openbittorrent.com/announce&quot; rel=&quot;nofollow&quot; target=&quot;_NEW&quot;&gt;\nhttp://tracker.openbittorrent.com/announce&lt;/a&gt;\n\n","torrent":{"xt":"urn:btih:8f7058aaa24be204e4b0f66cef1f40a4a8836c35","amp;dn":"Sun+cheung+sau+%28The+Sniper%29+2009+DVDRip+%5BH.264+-+MP4+-+AAC%5D+%7E+Mi","amp;tr":["udp%3A%2F%2Ftracker.openbittorrent.com%3A80","udp%3A%2F%2Fopen.demonii.com%3A1337","udp%3A%2F%2Ftracker.coppersurfer.tk%3A6969","udp%3A%2F%2Fexodus.desync.com%3A6969"],"infoHash":"8f7058aaa24be204e4b0f66cef1f40a4a8836c35","infoHashBuffer":{"type":"Buffer","data":[143,112,88,170,162,75,226,4,228,176,246,108,239,31,64,164,168,131,108,53]},"announce":[],"urlList":[]}}